<?xml version="1.0" encoding="utf-8"?>
<!-- Generator: Adobe Illustrator 19.0.0, SVG Export Plug-In . SVG Version: 6.00 Build 0)  -->
<svg version="1.1" id="Layer_1" xmlns="http://www.w3.org/2000/svg" xmlns:xlink="http://www.w3.org/1999/xlink" x="0px" y="0px"
	 viewBox="0 0 500 500" style="enable-background:new 0 0 500 500;" xml:space="preserve">
<style type="text/css">
	.st0{fill:#3B54A4;}
	.st1{fill:#010101;}
	.st2{fill:#EE3727;}
	.st3{fill:#7B2322;stroke:#010101;stroke-width:2;stroke-miterlimit:10;}
</style>
<g id="Layer_3">
	<g id="XMLID_7_">
		<path id="XMLID_19_" class="st0" d="M385.2,258c0,0-6-32.4-12-51c-6-18.6-21-57-21-57c-2.1-5.2-3.1-5.5-5.7-11.6
			c-2.7-6.2-1.3-8.7-1.3-21.4c0-6.6,9.4-21.7,9.2-21.4c-8,15.8,0,0,0,0c5.6-8.1,7.6-17.9,7.6-28.6c0-27.9-22.5-50.4-50.4-50.4
			c-27.9,0-50.4,22.5-50.4,50.4c0,10.6,3.4,20.4,9,28.6c0,0,10.1,9.7,10.1,21.8s1.1,9.5-1.4,21c-2,9-2.1,6.4-4.5,11.6
			c0,0-16.8,32.9-21,55.6c-4.2,22.7-10.8,50.1-10.8,50.1l-8.8,63.3c0,9.2,7.6,19.6,16.8,19.6c0,0,25.4,10.4,69.2,10.4
			s57.8-13.2,57.8-13.2c12-5.9,16.8-11.8,16.8-21L385.2,258z"/>
		<g id="XMLID_14_">
			<path id="XMLID_18_" class="st1" d="M391.6,259.9c-5.7-31.1-14.8-60.4-26.1-89.8c-2.2-5.7-4.3-11.5-6.6-17.2c-2-5-5.5-9.7-7-14.8
				c-1.1-3.4-0.7-6.9-0.6-10.5c0.1-4.2-0.1-8.5,1.1-12.6c1.8-5.7,4.9-11.8,8.3-16.7c-4.2-2-8.5-3.9-12.7-5.9c-1.1,2.4-2.4,4.6-3.5,7
				c4.2,2,8.5,3.9,12.7,5.9c5.5-10.8,10.5-20.3,11.1-32.9c0.7-16.1-5.3-31.2-16.9-42.4C329,8.4,291,5.2,268.8,28.8
				c-11.1,11.8-16.2,28.3-13.6,44.3c1.3,7.8,4.3,16.1,9.4,22.4c4.2,5.3,8.1,10.4,8.8,17.5c1.3,12-0.3,23.4-5.7,34
				c-5.3,10.5-10.1,21.4-14.1,32.5c-6.2,16.7-8.8,34.2-12.7,51.5c-1.8,8-4.1,15.8-5.3,24c-2.8,19.2-5.3,38.2-8,57.4
				c-1.4,10.2,3.2,19.7,12,25.5c3.1,2,6.4,3.5,10.1,4.2c5.6,1.1-4.2-2,1.7,0.1c2.7,1,5.5,1.8,8.3,2.7c31.2,8.7,67.2,11.6,98.9,4.5
				c8.1-1.8,16.1-4.5,23.1-9.1c8.3-5.3,17.4-9.5,18.8-20.6c0.8-6.9-1.5-14.7-2.7-21.4c-1.7-10.6-3.4-21.4-5-32.1
				C392.3,264.3,391.9,262.2,391.6,259.9c-0.7-4.3-13.6-8.4-13-4.2c2.5,16.1,5,32.4,7.6,48.5c1.1,7.6,2.5,14.1-3.5,20.3
				c-4.2,4.3-10.8,7.7-16.1,10.6c-8.8,4.8-19.3,6.9-29.3,8.3c-18.1,2.4-36.8,1.5-54.9-1c-9.9-1.4-20-3.2-29.6-6.4
				c-0.8-0.3-1.7-0.6-2.7-1c2.5,0.8-0.4,0-2.1-0.6c-5.7-2.1-8.5-8-8.1-14.1c1-16.9,4.8-34.2,7-51c0.4-3.2,0.8-6.4,1.4-9.7
				c0.4-2.9,0-0.6,0.7-3.6c3.6-14.3,6.6-28.9,9.4-43.3c4.5-22.7,14-43,24-63.7c4.6-9.7,5.5-23.5,3.6-33.9
				c-2.4-13.2-14-21.3-17.2-34.3c-8.4-34.2,25.9-72.1,61.2-57.3c15.4,6.4,24.5,23.1,25.2,39.4c0.4,10.9-2.1,20.2-7.4,29.7
				c-1.3,2.2-2.4,4.6-3.5,7c-2,3.9,10.6,9.9,12.7,5.9c1.1-2.4,2.4-4.6,3.5-7c2-3.9-10.1-9.5-12.7-5.9c-7.8,11.2-11.8,25.4-9.7,39.1
				c1,6.4,5.3,11.9,7.7,17.8c2,4.6,3.6,9.5,5.5,14.1c6.3,16.4,12.9,32.8,17.5,49.7c3.9,14,6.9,28.3,9.5,42.6
				C379.4,260.2,392.3,264.3,391.6,259.9z"/>
		</g>
	</g>
</g>
<g id="Layer_2">
	<g id="XMLID_5_">
		<g id="XMLID_4_">
			<path id="XMLID_45_" class="st2" d="M214,427.2l-80.7-48.9c-9.7-5-16.8-13.3-16.7-22.5l-1.7-95.2c0-11.5,5-22.7,12.7-16.7
				l84.5,51c9.2,4.6,16.8,13.3,16.7,22.5l-0.7,97.3C228.2,423.9,224,433.3,214,427.2z"/>
			<g id="XMLID_40_">
				<path id="XMLID_44_" class="st1" d="M215.8,424.2c-25.6-15.5-51.3-31.1-76.9-46.6c-6.9-4.2-14.6-8.1-17.6-16.1
					c-1.8-4.5-1.3-9.9-1.3-14.7c-0.3-18.5-0.7-37.1-1-55.6c-0.1-7.8-0.3-15.8-0.4-23.7c-0.1-5.6-1.4-15.1,2.4-19.3
					c2.2-2.4,3.8-1.7,6.3-0.4c2.2,1.1,4.3,2.7,6.6,3.9c7.1,4.3,14.3,8.7,21.4,12.9c15.8,9.5,31.5,19,47.3,28.6
					c3.8,2.2,7.8,4.3,11.5,6.9c8,5.2,11.3,12.5,11.3,21.6c-0.1,19.2-0.3,38.4-0.4,57.6c0,9.4-0.1,18.6-0.1,28
					C224.7,413.4,225.8,429.7,215.8,424.2c-3.9-2.1-7.6,3.9-3.5,6c20.4,11.1,19.5-18.2,19.5-30.4c0.1-21,0.3-42,0.4-63
					c0-6.2,0.3-12.3,0.1-18.3c-0.3-12.3-8.3-20.4-18.3-26.5c-12.2-7.1-24.2-14.6-36.3-21.8c-15.5-9.4-31.1-18.6-46.5-28
					c-17.4-10.6-19.7,13.2-19.6,25.6c0.3,20,0.7,40.2,1,60.2c0.3,13.9-2.8,32.8,6.9,44.1c5.3,6.3,13.2,10.1,20.2,14.4
					c9.2,5.6,18.3,11.1,27.6,16.7c15,9.1,30.1,18.2,45.1,27.3C216.1,432.6,219.6,426.5,215.8,424.2z"/>
			</g>
		</g>
		<g id="XMLID_6_">
			<path id="XMLID_38_" class="st2" d="M243.8,424.9l80.7-48.9c9.7-5,16.8-13.3,16.7-22.5l1.7-95.2c0-11.5-5-22.7-12.7-16.7
				l-84.5,51c-9.2,4.6-16.8,13.3-16.7,22.5l0.7,97.3C229.8,421.7,234,431.1,243.8,424.9z"/>
			<g id="XMLID_33_">
				<path id="XMLID_37_" class="st1" d="M245.7,427.9c26.8-16.2,53.5-32.6,80.4-48.7c9.9-5.9,18.2-13.6,18.8-25.8
					c0.3-5,0.1-10.1,0.3-15.1c0.4-20.6,0.7-41.2,1.1-61.8c0.1-10.1,3.6-44-13.9-39.9c-4.2,1-9.1,5-12.7,7.3
					c-8.3,5-16.5,10.1-24.9,15c-16,9.7-32.1,19.3-48,29c-7.7,4.6-15.3,9.4-19,18.1c-2.2,5.5-2,10.9-1.8,16.5
					c0.1,22.7,0.3,45.4,0.6,68.1C226.2,403.1,223.1,440.2,245.7,427.9c3.9-2.1,0.4-8.3-3.5-6c-9.5,5.2-8.8-8.7-9-14.8
					c0-7.4-0.1-14.8-0.1-22.4c-0.1-19-0.3-38.1-0.4-57.1c0-4.1-0.3-8.3-0.1-12.3c0.6-10.5,8.7-16,16.8-20.7
					c13.9-8.3,27.7-16.7,41.5-25.1c13-7.8,25.9-17.4,39.6-24c2.5-1.3,4.1-2,6.3,0.4c2.9,3.2,2.5,9.5,2.5,13.6
					c0,5.7-0.1,11.5-0.3,17.1c-0.3,19-0.7,38.2-1,57.3c-0.1,6-0.1,11.9-0.3,17.9c-0.3,10.2-6.7,16.2-15.1,21.3
					c-26.9,16.1-53.6,32.5-80.5,48.7C238.2,424.2,241.7,430.2,245.7,427.9z"/>
			</g>
		</g>
		<g id="XMLID_2_">
			<path id="XMLID_31_" class="st2" d="M327,243.7l-83.8,48.9c-9.1,5.5-19.7,7.1-27.3,2.2l-78.7-45c-9.5-5.9-16.2-15.8-7.3-19.2
				l81.8-48.2c8.7-5.3,19.7-7.1,27.3-2.2l84.9,45.2C331.7,230.4,337.3,238.6,327,243.7z"/>
			<g id="XMLID_26_">
				<path id="XMLID_30_" class="st1" d="M325.4,240.6c-25.6,15-51.4,30-77,45.1c-5.3,3.1-10.6,6.7-16.8,8c-7.7,1.5-13.2-1.5-19.3-5
					c-15.3-8.7-30.4-17.4-45.7-26.1c-7-4.1-14.1-8.1-21.1-12c-5-2.9-10.9-5.7-14.3-10.6c-2.5-3.8-1.3-5,1.8-6.7
					c2-1.1,3.8-2.2,5.6-3.4c6.7-3.9,13.3-7.8,20-11.8c15.7-9.2,31.2-18.3,46.9-27.6c3.9-2.2,7.8-5,12-6.9c8.5-3.8,16-2.4,23.7,1.8
					c16.8,9,33.5,17.9,50.3,26.8c8.1,4.3,16.2,8.7,24.2,12.9C321,227.9,335.4,234.9,325.4,240.6c-3.9,2.2-0.4,8.3,3.5,6
					c11.9-6.7,6.6-18.3-3.1-24.2c-4.1-2.5-8.4-4.5-12.6-6.7c-18.3-9.8-36.6-19.5-54.9-29.3c-5.5-2.9-10.9-5.7-16.2-8.7
					c-9.9-5.3-20.3-4.6-30.1,0.6c-12.9,6.9-25.4,14.8-38,22.4c-14.7,8.7-29.4,17.6-44.3,26.1c-17.2,9.7,1.4,23.5,12.2,29.7
					c16.8,9.7,33.8,19.3,50.6,28.9c6.6,3.8,13,7.4,19.6,11.2c9.1,5.2,18.2,5.9,28,1.7c5.7-2.4,11.1-6,16.5-9.2
					c9.4-5.5,18.8-10.9,28.2-16.4c14.7-8.7,29.6-17.2,44.3-25.9C332.8,244.4,329.1,238.4,325.4,240.6z"/>
			</g>
		</g>
	</g>
	<path id="XMLID_8_" class="st1" d="M243.6,237.5c0.7,5.5-5.2,9.9-13.2,9.9c-8,0-14.8-4.5-15.5-9.9s5.2-9.9,13.2-9.9
		S242.9,232.1,243.6,237.5z"/>
	<path id="XMLID_10_" class="st1" d="M153.5,291.3c0.4,7-4.9,12.6-11.9,12.6s-12.9-5.6-13.3-12.6c-0.4-7,4.9-12.6,11.9-12.6
		C147.2,278.7,153.1,284.3,153.5,291.3z"/>
	<path id="XMLID_11_" class="st1" d="M213.9,389.8c0.4,7-4.9,12.6-11.9,12.6s-12.9-5.6-13.3-12.6c-0.4-7,4.9-12.6,11.9-12.6
		S213.4,382.8,213.9,389.8z"/>
	<path id="XMLID_12_" class="st1" d="M272.3,314.6c-1.4,6.6-7.8,11.8-14.4,11.8c-6.6,0-10.6-5.3-9.2-11.8s7.8-11.8,14.4-11.8
		S273.7,308,272.3,314.6z"/>
	<path id="XMLID_13_" class="st1" d="M299,332.9c-1.4,6.6-7.8,11.8-14.4,11.8s-10.6-5.3-9.2-11.8c1.4-6.4,7.8-11.8,14.4-11.8
		C296.2,321.1,300.4,326.5,299,332.9z"/>
	<path id="XMLID_1_" class="st1" d="M325.6,346.8c-1.4,6.6-7.8,11.8-14.4,11.8c-6.6,0-10.6-5.3-9.2-11.8s7.8-11.8,14.4-11.8
		C322.8,334.9,327,340.2,325.6,346.8z"/>
	<path id="XMLID_15_" class="st3" d="M216.9,297.7c0,0,3.5,1.7,6.7,6.3c3.2,4.5,5.5,9,5.5,9s0.6-3.6,3.5-9.1
		c2.9-5.5,5.5-6.2,5.5-6.2s-6.4,2.1-10.5,2.1S216.9,297.7,216.9,297.7z"/>
	<path id="XMLID_16_" class="st3" d="M127.2,238.9l3.4,6.3l-7.4-1.7c0,0-4.8,0.4-1.4-4.6C125.1,234,127.2,238.9,127.2,238.9z"/>
	<path id="XMLID_9_" class="st3" d="M218.6,429.1c0,0-1.5,2.4,9,1c10.5-1.4,10.4-3.2,10.4-3.2s-4.6-1.7-5.7-3.9
		c-1.1-2.2-2.5-8.3-2.5-8.3s0.7,1-2.7,7.7S218.6,429.1,218.6,429.1z"/>
</g>
</svg>
