<?xml version="1.0" encoding="utf-8"?>
<!-- Generator: Adobe Illustrator 19.0.0, SVG Export Plug-In . SVG Version: 6.00 Build 0)  -->
<svg version="1.1" id="Layer_1" xmlns="http://www.w3.org/2000/svg" xmlns:xlink="http://www.w3.org/1999/xlink" x="0px" y="0px"
	 viewBox="0 0 30 20" style="enable-background:new 0 0 30 20;" xml:space="preserve">
<style type="text/css">
	.st0{fill:#FFFFFF;stroke:#000000;stroke-width:0.1;stroke-miterlimit:10;}
</style>
<path id="XMLID_1_" class="st0" d="M21.9,4.2H3.5c-0.8,0-1.4-0.6-1.4-1.4V2.3c0-0.8,0.6-1.4,1.4-1.4h18.4c0.8,0,1.4,0.6,1.4,1.4v0.5
	C23.3,3.6,22.7,4.2,21.9,4.2z"/>
<path id="XMLID_3_" class="st0" d="M21.9,10.5H3.5c-0.8,0-1.4-0.6-1.4-1.4V8.5c0-0.8,0.6-1.4,1.4-1.4h18.4c0.8,0,1.4,0.6,1.4,1.4
	v0.5C23.3,9.9,22.7,10.5,21.9,10.5z"/>
<path id="XMLID_4_" class="st0" d="M21.9,16.8H3.5c-0.8,0-1.4-0.6-1.4-1.4v-0.5c0-0.8,0.6-1.4,1.4-1.4h18.4c0.8,0,1.4,0.6,1.4,1.4
	v0.5C23.3,16.1,22.7,16.8,21.9,16.8z"/>
</svg>
