<?xml version="1.0" encoding="utf-8"?>
<!-- Generator: Adobe Illustrator 19.0.0, SVG Export Plug-In . SVG Version: 6.00 Build 0)  -->
<svg version="1.1" id="Layer_1" xmlns="http://www.w3.org/2000/svg" xmlns:xlink="http://www.w3.org/1999/xlink" x="0px" y="0px"
	 viewBox="-99 -150 500 500" style="enable-background:new -99 -150 500 500;" xml:space="preserve">
<style type="text/css">
	.st0{fill:#FFFFFF;}
	.st1{fill:#FFFFFF;stroke:#000000;stroke-width:0.1;stroke-miterlimit:10;}
</style>
<g id="XMLID_21_">
	<g id="XMLID_20_">
		<path id="XMLID_74_" class="st0" d="M132,145.9V170c0,0-36.4,11.9-82.8,11.9S-32.5,170-32.5,170v-24.1"/>
		<g id="XMLID_69_">
			<path id="XMLID_73_" d="M130.8,145.6c0,4.8,0,9.7,0,14.5c0,2.1,1,8.5-0.5,9.8c-0.8,0.7-3,0.9-4,1.2c-2.5,0.7-5,1.4-7.6,2
				c-8.9,2.2-17.9,3.9-27,5.3c-40.2,6-82.5,4.2-121.6-7.6c-0.4-0.1-1.5-0.3-1.8-0.6c-0.6-0.6,0.4,0.6,0.2,0c-0.6-2.1,0-5.4,0-7.5
				c0-5.5,0-10.9,0-16.4c0-0.5-2.4-0.7-2.4-0.5c0,8,0,16.1,0,24.1c0,0.2,0.5,0.3,0.6,0.3c16.8,5.6,34.7,8.6,52.2,10.5
				c31.1,3.3,62.6,1.5,93.1-4.9c7-1.5,14.1-3.1,21-5.3c0,0,0,0,0.1,0c0-8,0-16.1,0-24.1C133.2,145.7,130.8,145.5,130.8,145.6
				L130.8,145.6z"/>
		</g>
	</g>
	<g id="XMLID_19_">
		<path id="XMLID_67_" class="st0" d="M-8.8,119.5c0,5.3-20.2,18.2-23.8,26.4s51.6,16.3,81.7,16.3s81.8-6.2,82.8-16.3
			c1-10.2-24.9-26.4-24.9-26.4"/>
		<g id="XMLID_62_">
			<path id="XMLID_66_" d="M-10,119.9c-0.4,3.6-4.8,6.9-7.3,9.1c-3.7,3.4-7.6,6.6-11.1,10.2c-3.3,3.4-8.1,7.6-2.8,11
				c6.2,3.9,14.5,5.2,21.6,6.5c10.5,2.1,21.2,3.5,31.8,4.5c21.1,2,42.2,1.5,63.3-0.9c9.8-1.1,19.6-2.5,29.1-5
				c5.4-1.4,12.4-2.9,16.7-6.9c9.3-8.7-17-25.7-23.1-29.5c-0.5-0.3-2.4,0.8-2.2,0.9c4.5,2.8,8.8,6,12.8,9.4
				c4.1,3.4,13.9,11.2,11.9,17.6c-1.8,5.6-13.3,7.3-17.9,8.4c-10,2.3-20.2,3.7-30.4,4.7c-19.4,1.9-38.7,2.2-58.1,0.3
				c-10.4-1-20.7-2.4-31-4.4c-6.9-1.4-14.5-2.7-20.9-6c-1.5-0.7-3.7-1.8-3.9-3.7c-0.3-3.3,5.7-8,7.8-10c3.7-3.5,7.8-6.8,11.4-10.4
				c1.9-1.8,4.4-4.1,4.7-6.8C-7.6,119.1-9.9,119.3-10,119.9L-10,119.9z"/>
		</g>
	</g>
	<g id="XMLID_18_">
		<path id="XMLID_60_" class="st0" d="M-8.8,30c0,0-1.6,81.3,0,89.5s17.5,11.9,57.9,11.9s59.3-7.1,57.9-11.9c-1.4-4.8,0-89.5,0-89.5
			"/>
		<g id="XMLID_55_">
			<path id="XMLID_59_" d="M-10,30.2c-0.4,18.9-0.6,37.8-0.7,56.7c0,9.9-0.3,19.8,0.4,29.7c0.4,6.3,3.8,9.3,9.8,11.3
				c14.7,5.1,32.1,4.4,47.4,4.4c16.6,0,34.2-0.3,50.3-5c4.5-1.3,11.4-3.2,11-8.8c-0.5-8.2-0.5-16.5-0.5-24.7
				c0-21.3,0.3-42.6,0.6-63.8c0-1.2-2.4-0.8-2.4,0.3c-0.3,16.7-0.5,33.4-0.6,50.1c-0.1,10.2-0.1,20.5,0.1,30.7
				c0.1,2.7,0.4,5.4,0.4,8c0,2.4-0.9,3.2-3.2,4.4c-4.7,2.4-10.3,3.5-15.4,4.4c-8.7,1.5-17.6,2.2-26.5,2.5c-17.7,0.6-36.5,1-54-2.5
				c-6.5-1.3-13.9-3.3-14.6-10.9c-0.7-8.7-0.5-17.6-0.4-26.3C-8.3,70.5-8,50.2-7.6,30C-7.5,28.6-10,29.1-10,30.2L-10,30.2z"/>
		</g>
	</g>
	<g id="XMLID_17_">
		<path id="XMLID_53_" class="st0" d="M-36.3,7c0.4,8.2,21.2,13.9,27.5,23c6.3,9.2,38.6,11.9,59.2,11.9S103.2,37.1,107,30
			c3.8-7.1,27.5-12.1,27.5-23"/>
		<g id="XMLID_48_">
			<path id="XMLID_52_" d="M-37.5,6.9c0.6,5.2,6.7,8.3,10.6,10.7c6.4,3.9,12.3,7.3,17.3,12.9c3.2,3.6,8.1,5.3,12.6,6.6
				c7.4,2.1,15.1,3.2,22.7,3.9c15.8,1.6,31.6,1.6,47.4-0.2c7.6-0.9,15.3-2.1,22.7-4.2c4.4-1.3,9.3-2.7,12.4-6.3
				c4.3-5.1,10.4-7.5,16.1-10.7c4.9-2.7,11.2-6.4,11.5-12.6c0-0.5-2.5-0.7-2.5-0.2c-0.6,10.5-16.7,14.3-23.8,19.4
				c-3.4,2.4-4.9,5.6-8.9,7.4c-6,2.7-12.7,4-19.1,5.1c-15.6,2.7-31.3,3.2-47,2.3c-8.1-0.5-16.3-1.3-24.2-3c-5.6-1.2-12.8-2.7-17-7
				c-4.4-4.5-8.3-7.9-13.8-11.2C-25.3,17-34.3,13.3-35,7C-35.1,6.5-37.6,6.5-37.5,6.9L-37.5,6.9z"/>
		</g>
	</g>
	<g id="XMLID_3_">
		<path id="XMLID_45_" class="st0" d="M100-32.4c0,0,0,14.1,0,19.7s-28.2,5.6-28.2,0s0-19.7,0-19.7H28.7c0,0,0.5,14.4,0,19.7
			c0.5,5.3-29,7.3-29.7,0c0-6.6,0-19.7,0-19.7h-35.3c0,0,0,33.4,0,39.4s62.4,14.1,86,14.1s84.9-4.2,84.9-14.1c0-9.9,0-39.4,0-39.4
			H100z"/>
		<g id="XMLID_40_">
			<path id="XMLID_44_" d="M98.8-32.7c0,5.7,0,11.3,0,17c0,2.5,0.2,3.7-2.1,5C94.2-9.4,90.8-9.2,88-9c-3.2,0.2-6.5,0.1-9.7-0.4
				C74.6-10,73-10.7,73-14.5c0-5.8,0-11.7,0-17.5c0-0.6-1.6-0.8-2-0.8c-14.4,0-28.7,0-43.1,0c0,0-0.4,0-0.4,0.2
				c0.2,5.7,0.4,11.4,0.2,17.1c-0.1,2.3,0.1,3.6-2,4.8c-2.2,1.3-5.1,1.7-7.6,2c-4.5,0.6-16.5,2-17.8-3.9c-0.8-3.6,0-8.2,0-12
				c0-2.5,0-4.9,0-7.4c0-0.6-1.6-0.8-2-0.8c-11.8,0-23.5,0-35.3,0c-0.1,0-0.4,0-0.4,0.2c0,7.1,0,14.2,0,21.2c0,4.6,0,9.3,0,13.9
				c0,1.8-0.5,3.9,0.6,5.4c2.8,3.6,11.4,4.5,15.4,5.4c10.3,2.3,20.8,3.8,31.3,5.1c19.6,2.5,39.1,3.7,58.8,2.7
				c11.2-0.6,22.3-1.4,33.4-2.8c9-1.1,18.4-2.3,27-5.5c2.2-0.8,5.4-1.9,6.5-4.2c1.5-3.1,0.3-9,0.3-12.4c0-9.4,0-18.8,0-28.2
				c0-0.6-1.6-0.8-2-0.8c-11.5,0-23,0-34.5,0c-1.2,0,1,1,1.6,1c11.5,0,23,0,34.5,0c-0.7-0.3-1.3-0.6-2-0.8c0,9,0,18,0,27.1
				c0,3.7,1.1,9.6-0.1,13.1c-1,2.7-5,3.9-7.4,4.8c-10.4,3.6-21.9,4.7-32.8,5.9c-12.1,1.3-24.3,2.1-36.4,2.4
				c-22.9,0.6-46.1-2.3-68.6-6.2c-5.2-0.9-10.4-1.9-15.4-3.3c-2.2-0.6-6.7-1.3-7.7-3.7c-0.4-1,0-3.2,0-4.2c0-2.5,0-5.1,0-7.6
				c0-5.4,0-10.9,0-16.3c0-2.5,0-5,0-7.5c0-0.8-0.4-2.9,0-3.6c0.2-0.3-0.7,0.4,0.1,0c0.4-0.2,1.2,0,1.6,0c2.1,0,4.3,0,6.4,0
				c8.9,0,17.8,0,26.7,0c-0.7-0.3-1.3-0.6-2-0.8c0,5,0,10.1,0,15.1c0,3.8-0.5,6.2,3.2,8.1c6.8,3.4,17,2.8,24,0.7
				c3.2-0.9,4.9-1.8,5-5.2c0.3-5.6,0-11.2-0.1-16.7c0-1.5-0.6-0.8,0.1-1.1c0.8-0.4,3,0,3.9,0c4.5,0,9.1,0,13.6,0c8.3,0,16.7,0,25,0
				c-0.7-0.3-1.3-0.6-2-0.8c0,3.4,0,6.7,0,10.1c0,2.8-1,7.8,0.2,10.4c1.8,3.9,10.3,4,13.7,4.1C88.4-7.6,98.2-7,100.8-11
				c1.5-2.3,0.4-7.9,0.4-10.6c0-3.4,0-6.7,0-10.1C101.3-32.7,98.8-33.1,98.8-32.7z"/>
		</g>
	</g>
	<g id="XMLID_2_">
		<path id="XMLID_38_" class="st0" d="M-45.6,170.8c2-3.3,13-0.7,13-0.7S0.7,182,49.1,182s82.8-11.9,82.8-11.9s6.9-2.9,13-2.2
			c6.7,1.3,7.3,22.2,1.5,26c-19.6,12.6-57.2,16.3-96,16.3s-90.1-10.8-96-16.3C-50.8,189-45.6,170.8-45.6,170.8"/>
		<g id="XMLID_33_">
			<path id="XMLID_37_" d="M-44.7,171.7c3.8-4.6,14.6,0.2,19.5,1.5c12.7,3.6,25.8,6,38.9,7.6c35.7,4.3,72.5,2.3,107.4-6.4
				c6.3-1.6,14.8-5.7,21.3-5.6c2.9,0.1,4.5,0.6,5.6,3.4c0.6,1.4,0.8,2.8,1.1,4.3c0.5,3.5,0.5,7.3-0.4,10.7
				c-1.6,6.6-8.1,8.8-13.8,11.1c-17.7,7-37.5,9-56.4,10.1c-19.9,1.2-39.8,1.1-59.6-1c-17.9-1.9-36.2-4.7-53.5-9.8
				c-5.7-1.7-11.7-2.6-12.3-9.6C-47.3,182.6-46.2,176.8-44.7,171.7c0.3-1-1.7-2.5-2-1.5c-2,7.2-5.7,20.8,2.2,25.5
				c4.2,2.5,9.6,3.7,14.3,5c8.4,2.2,16.9,3.9,25.4,5.4c19.6,3.3,39.5,5.4,59.4,5.2c22.3-0.1,45.2-1.1,67-6.4
				c8.4-2,17.2-4.6,24.5-9.4c4.6-3,5.3-8.8,5.2-14c-0.1-4.4-0.7-10.5-4.5-13.5c-4.2-3.2-11.4-0.4-15.7,1.1
				c-29.6,10.1-62.9,12.8-93.9,11.6c-20.4-0.8-40.8-3.5-60.5-8.8c-5.6-1.5-18.7-7.4-23.3-2C-47.1,170.7-45.3,172.4-44.7,171.7
				L-44.7,171.7z"/>
		</g>
	</g>
</g>
<g id="XMLID_1_">
	<path id="XMLID_80_" class="st0" d="M276,138c0,0-4.3-23.1-8.6-36.4s-15-40.7-15-40.7c-1.5-3.7-2.2-3.9-4.1-8.3s-0.9-6.2-0.9-15.3
		c0-4.7,6.7-15.5,6.6-15.3c-5.7,11.3,0,0,0,0c4-5.8,5.4-12.8,5.4-20.4c0-19.9-16.1-36-36-36s-36,16.1-36,36c0,7.6,2.4,14.6,6.4,20.4
		c0,0,7.2,6.9,7.2,15.6s0.8,6.8-1,15c-1.4,6.4-1.5,4.6-3.2,8.3c0,0-12,23.5-15,39.7s-7.7,35.8-7.7,35.8l-6.3,45.2
		c0,6.6,5.4,14,12,14c0,0,18.1,7.4,49.4,7.4s41.3-9.4,41.3-9.4c8.6-4.2,12-8.4,12-15L276,138z"/>
	<g id="XMLID_75_">
		<path id="XMLID_79_" d="M276.7,138.8c-4.1-21.8-10.4-42.4-18.2-63.1c-1.6-4.2-3.2-8.4-4.8-12.6c-1.4-3.6-3.6-6.8-5-10.3
			c-1-2.7-0.9-5.4-0.8-8.3c0.1-3.1-0.1-6.2,0.7-9.2c1.2-4.2,3.5-8.7,6-12.3c-0.5-0.7-1-1.3-1.5-2c-0.8,1.7-1.7,3.3-2.5,5
			c0.5,0.7,1,1.3,1.5,2c3.8-7.6,7.5-14.1,7.9-22.9c0.4-9.5-2.4-18.6-8.2-26.1c-13.3-17-39.1-19.5-54.7-3.9
			c-7.6,7.6-11.5,18.4-10.4,29.1c0.6,5.8,2.5,11.4,5.6,16.3c2.6,4.2,6.2,7.4,7.3,12.5c2,9,0.3,18.9-3.8,26.9
			c-3.5,6.9-6.6,14.1-9.4,21.3c-4.6,11.9-6.6,24.2-9.3,36.6c-1.3,6.2-3.1,12.3-4.1,18.5c-2.2,13.6-3.8,27.3-5.7,40.9
			c-0.8,5.5,0.4,10.4,4.2,14.7c3.5,3.9,8.6,4.7,13.4,6.1c21.5,6.4,46.7,8.3,68.7,3.5c5.9-1.3,11.4-3.2,16.5-6.4
			c5.8-3.6,12.6-6.9,12.9-14.7c0.2-4.7-1.3-9.8-2-14.4c-1.2-7.6-2.4-15.3-3.6-22.9C277.2,141.9,277,140.4,276.7,138.8
			c-0.1-0.5-1.6-2.1-1.5-1.5c1.8,11.5,3.6,23.1,5.4,34.6c0.9,5.7,1.7,10.7-2.9,15.4c-3,3-7.7,5.5-11.5,7.6
			c-6.5,3.6-14.2,5.2-21.4,6.1c-13.1,1.7-26.7,1.2-39.8-0.5c-7.7-1-15.3-2.4-22.7-4.8c-1-0.3-2.1-0.8-3.2-1.1
			c-4.8-1.2-8.1-2.5-10-8.3c-0.5-1.5-0.6-2.9-0.5-4.4c0.7-12.3,3.4-24.8,5.1-36.9c1.9-13.6,5.6-26.8,8.2-40.2
			c3.2-16.5,10.4-30.8,17.3-45.9c3.1-6.7,3.5-16.2,2.2-23.4c-1.6-8.8-9.3-14.4-11.8-22.9C182-13.3,206-38.3,232.1-32.3
			c14.5,3.3,25.3,15.6,26.4,30.5c0.6,8-0.9,15.4-4.8,22.3c-1,1.9-2,3.8-3,5.7c-0.3,0.6,1.4,2.1,1.5,2c0.8-1.7,1.7-3.3,2.5-5
			c0.3-0.5-1.3-2.2-1.5-2c-5.5,7.9-7.9,17.1-6.9,26.7c0.5,4.7,3.6,8.5,5.4,12.8c1.4,3.2,2.5,6.6,3.8,9.8
			c4.5,11.8,9.3,23.7,12.7,35.9c2.9,10.2,5.1,20.6,7,31C275.3,137.8,276.8,139.4,276.7,138.8z"/>
	</g>
</g>
<g id="XMLID_5_">
	<g id="XMLID_6_">
		<path id="XMLID_151_" class="st0" d="M90.1,125.7l-4.4-2.6c-5.5-4.3-9.1,3.8-9.1,11.9l1.2,68c0,6.6,5,12.5,11.9,16.1l57.6,34.9
			c7,4.4,10-2.3,10.1-8.9l0.5-69.5c0-6.6-5.3-12.8-11.9-16.1l-46.6-28.2l-6.9-3.9C91.7,126.9,90.9,126.3,90.1,125.7z"/>
		<g id="XMLID_100_">
			<path id="XMLID_144_" d="M91.2,125.2c-4.3-2.6-9-6.1-12.9-1c-3.2,4.2-2.8,10.1-2.8,15.1c0.2,14.1,0.5,28.2,0.7,42.2
				c0.1,6,0.2,12,0.3,18c0.1,5.6,0.7,10.3,4.8,14.7c3.2,3.4,7.6,5.6,11.5,8c5.7,3.4,11.3,6.9,17,10.3c11.4,6.9,22.8,13.8,34.2,20.7
				c3.1,1.8,6.1,3.7,9.7,2c4.7-2.3,4.8-8.1,4.9-12.6c0.1-13,0.2-26,0.3-39c0.1-6.9,0.1-13.9,0.2-20.8c0-3.7,0.5-7.9-0.5-11.4
				c-2.2-7.3-9-10.8-15-14.4c-6.6-4-13.1-7.9-19.7-11.9c-6.6-4-13.1-7.9-19.7-11.9C99.9,130.4,95.3,128.2,91.2,125.2
				c-0.5-0.4-2.5,0.8-2.2,1c7.4,5.5,16.3,9.9,24.2,14.6c10.3,6.2,20.6,12.6,31,18.7c6.4,3.7,12.3,8.5,12.6,16.5
				c0.1,3.3,0,6.6-0.1,9.9c-0.1,13.5-0.2,27.1-0.3,40.6c0,5.3-0.1,10.7-0.1,16c0,5.4,0,14.6-7.8,10.9c-8.5-3.9-16.6-10-24.6-14.9
				c-10.4-6.3-20.8-12.6-31.2-18.9c-5.4-3.3-11.2-6.8-13.1-13.3c-0.9-3.1-0.6-6.8-0.7-9.9c-0.3-14.9-0.5-29.7-0.8-44.6
				c-0.1-5.3-0.2-10.7-0.3-16c0-3,0.1-6,1.1-8.9c1.2-3.4,2.5-4.9,5.9-3.3c1.5,0.7,2.8,1.7,4.2,2.5C89.6,126.5,91.5,125.4,91.2,125.2
				z"/>
		</g>
	</g>
	<g id="XMLID_25_">
		<path id="XMLID_98_" class="st0" d="M230.7,121.2c-0.6,0.6-1.5,1.3-2.6,1.8l-10.1,5.9l-48,29c-6.6,3.3-12,9.5-11.9,16.1l0.5,69.5
			c0,6.6,3,13.3,10.1,8.9l57.6-34.9c6.9-3.6,12-9.5,11.9-16.1l1.2-68C239.4,125.3,236,117.5,230.7,121.2z"/>
		<g id="XMLID_92_">
			<path id="XMLID_97_" d="M229.5,120.8c-3.8,3.2-8.8,5.4-13.1,8c-4.2,2.5-8.3,5-12.5,7.5c-11.4,6.9-22.7,13.9-34.1,20.6
				c-6.5,3.8-12.5,8.6-12.8,16.7c-0.1,3.5,0.1,7.1,0.1,10.6c0.1,15,0.2,30,0.3,45c0.1,6.9-2.5,23,6.8,24.7c3.4,0.7,6.3-1.6,9.1-3.3
				c5.4-3.3,10.8-6.6,16.3-9.9c11.7-7.1,23.4-14.2,35-21.2c5.3-3.2,10.9-6.2,13.6-12.2c1.7-3.8,1.3-8.3,1.4-12.4
				c0.3-16.1,0.6-32.1,0.8-48.2c0.1-4.3,0.3-8.7,0.2-13.1C240.5,128.3,237.5,116.2,229.5,120.8c0.1,0,1.8,1.1,2.3,0.8
				c6-3.4,6.5,9.5,6.4,13.9c-0.1,5.2-0.2,10.4-0.3,15.7c-0.2,13.7-0.5,27.4-0.7,41.1c0,2.9,0,5.8-0.1,8.7
				c-0.4,8.1-6.3,12.7-12.7,16.6c-9.9,6-19.8,12-29.7,18c-8.9,5.4-17.7,11.3-26.9,16.3c-7.1,3.9-7.9-4.3-8-9.7
				c-0.1-4.6-0.1-9.1-0.1-13.7c-0.1-14.2-0.2-28.4-0.3-42.6c0-3.6-0.2-7.3-0.1-11c0.2-7.9,5.7-12.9,12.1-16.7
				c11.2-6.6,22.2-13.4,33.3-20.1c4.6-2.8,9.2-5.6,13.8-8.3c4.4-2.6,9.5-4.8,13.3-8.1C231.7,121.6,230,120.3,229.5,120.8z"/>
		</g>
	</g>
	<g id="XMLID_26_">
		<path id="XMLID_90_" class="st0" d="M230.7,121.2c3.4-3.6-0.2-8.3-4.8-11.2l-60.6-32.3c-5.5-3.4-13.3-2.2-19.5,1.6l-58.4,34.4
			c-5.6,2.1-2.6,7.8,2.8,12l9.3,5.6l49.3,28.2c5.5,3.4,13,2.3,19.5-1.6l49.7-29l12.3-7.4C230.4,121.3,230.6,121.2,230.7,121.2z"/>
		<g id="XMLID_84_">
			<path id="XMLID_89_" d="M231.8,121.5c6.6-8.9-14.5-16.9-20-19.8C198.9,94.8,185.9,87.9,173,81c-3.1-1.6-6.3-3.8-9.6-5
				c-6.6-2.4-13.6-0.1-19.4,3.2c-10.3,6-20.5,12.1-30.8,18.1c-9,5.3-18.1,10.5-27,15.9c-10.9,6.6,9.6,17.1,15.2,20.2
				c12.1,6.9,24.1,13.8,36.2,20.7c3.3,1.9,6.7,3.9,10.1,5.7c7.2,3.9,14.8,2.3,21.6-1.6c11.8-6.7,23.4-13.7,35.2-20.5
				c9-5.2,18.7-10.1,27.1-16.1c1-0.7-1.4-1.4-2.1-0.9c-6.3,4.4-13.3,8.1-20,11.9c-11.3,6.6-22.6,13.2-33.8,19.8
				c-2.8,1.7-5.7,3.4-8.5,5c-5.7,3.2-11.7,4.6-17.8,1.6c-1.1-0.6-2.2-1.3-3.3-1.9c-11.1-6.3-22.1-12.6-33.2-18.9
				c-7.1-4.1-14.9-7.9-21.6-12.6c-1.9-1.3-4.1-3.4-5.1-5.6c-1.3-2.8-0.2-4.1,2.1-5.8c0.7-0.5,1.5-0.9,2.2-1.3
				c4.3-2.5,8.6-5.1,12.9-7.6c11.5-6.8,23-13.5,34.5-20.3c2.9-1.7,5.7-3.4,8.7-5.1c6.6-3.8,13.1-4.2,19.7-0.7
				c11.7,6.3,23.4,12.5,35.1,18.7c5.9,3.2,11.8,6.3,17.8,9.5c4.6,2.5,15.2,7,10.3,13.5C228.9,121.6,231.3,122.2,231.8,121.5z"/>
		</g>
	</g>
</g>
<g id="XMLID_8_">
	<path id="XMLID_157_" class="st0" d="M168.4,118.6c0.5,3.9-3.7,7.1-9.4,7.1c-5.7,0-10.6-3.2-11.1-7.1s3.7-7.1,9.4-7.1
		C163,111.5,168,114.7,168.4,118.6z"/>
	<g id="XMLID_152_">
		<path id="XMLID_156_" d="M167.7,118.7c0.3,9.4-18.1,8.3-19-0.2C147.6,109.1,166,110.5,167.7,118.7c0.1,0.7,1.6,0.5,1.5-0.2
			c-2-9.5-23.2-10.6-22,0.2c1.1,9.8,22.3,10.6,22-0.2C169.2,117.9,167.7,118,167.7,118.7z"/>
	</g>
</g>
<g id="XMLID_10_">
	<path id="XMLID_150_" class="st0" d="M104.2,157c0.3,5-3.5,9-8.5,9s-9.2-4-9.5-9s3.5-9,8.5-9S103.9,152,104.2,157z"/>
	<g id="XMLID_145_">
		<path id="XMLID_149_" d="M103.7,156.6c0,10.8-16.5,11.5-16.9,0.6c-0.5-10.9,15.7-11.1,16.9-0.4c0.1,0.6,1.1,1.3,0.9,0.4
			c-0.5-4.9-4.1-9.3-9.2-9.8c-5.5-0.5-10,3.9-9.7,9.3c0.3,4.6,3.8,8.8,8.3,9.7c5.9,1.3,10.7-3.3,10.6-9.1
			C104.7,156.8,103.7,155.8,103.7,156.6z"/>
	</g>
</g>
<g id="XMLID_11_">
	<path id="XMLID_143_" class="st0" d="M147.2,227.2c0.3,5-3.5,9-8.5,9s-9.2-4-9.5-9s3.5-9,8.5-9C142.7,218.3,147,222.3,147.2,227.2z
		"/>
	<g id="XMLID_138_">
		<path id="XMLID_142_" d="M146.5,227.3c0,4.7-2.8,8.3-7.7,8.3c-4.7,0-8.4-3.5-8.7-8.3c-0.2-3.6,1.9-7.2,5.4-8.3
			C141.2,217.1,145.9,222.1,146.5,227.3c0,0.4,1.5,0.3,1.5,0c-1.3-11.5-20.1-12.5-19.4,0c0.6,11.8,19.5,12.3,19.4,0
			C148,226.9,146.5,226.9,146.5,227.3z"/>
	</g>
</g>
<g id="XMLID_12_">
	<path id="XMLID_136_" class="st0" d="M188.9,173.5c-1,4.7-5.6,8.4-10.3,8.4c-4.7,0-7.6-3.8-6.6-8.4c1-4.7,5.6-8.4,10.3-8.4
		C187,165.1,190,168.9,188.9,173.5z"/>
	<g id="XMLID_131_">
		<path id="XMLID_135_" d="M188.2,173.4c-1,3.6-3.6,6.7-7.2,7.8c-5.1,1.6-9.2-2.5-8.2-7.5c0.7-3.3,3.3-6.2,6.4-7.4
			C184.7,164,189.1,167.9,188.2,173.4c-0.1,0.6,1.4,0.8,1.5,0.3c0.7-4.5-1.8-8.5-6.6-9c-5.3-0.5-10.7,3.5-11.8,8.7
			c-1,4.5,2,8.4,6.5,9c5.5,0.7,10.5-3.5,11.9-8.7C189.8,173.2,188.4,172.8,188.2,173.4z"/>
	</g>
</g>
<g id="XMLID_13_">
	<path id="XMLID_129_" class="st0" d="M208,186.7c-1,4.7-5.6,8.4-10.3,8.4c-4.7,0-7.6-3.8-6.6-8.4c1-4.7,5.6-8.4,10.3-8.4
		C206.1,178.2,209,182,208,186.7z"/>
	<g id="XMLID_124_">
		<path id="XMLID_128_" d="M207.4,187c-1.4,5.1-7,9.7-12.3,7c-2.9-1.5-3.9-4.7-3.2-7.7c1.1-5.2,7-9.6,12.2-7
			C207,180.8,207.9,184,207.4,187c0-0.1,1.3-0.3,1.3-0.7c1-6-4-9.7-9.6-8c-4,1.2-7.7,4.5-8.6,8.7c-1.3,6,4.1,9.6,9.5,8
			c4.2-1.2,7.6-4.5,8.7-8.7C208.7,186.4,207.5,186.6,207.4,187z"/>
	</g>
</g>
<g id="XMLID_14_">
	<path id="XMLID_122_" class="st0" d="M227,196.5c-1,4.7-5.6,8.4-10.3,8.4s-7.6-3.8-6.6-8.4c1-4.7,5.6-8.4,10.3-8.4
		S228,191.9,227,196.5z"/>
	<g id="XMLID_117_">
		<path id="XMLID_121_" d="M226.3,196.3c-1,3.6-3.6,6.6-7.2,7.8c-5,1.5-9.4-2.2-8.3-7.3c0.7-3.3,3.3-6.2,6.4-7.4
			C222.5,187.2,227.2,190.7,226.3,196.3c-0.1,0.7,1.3,1.1,1.4,0.5c0.7-4.5-1.7-8.6-6.5-9.1c-5.3-0.6-10.7,3.5-11.9,8.7
			c-0.9,4.3,1.7,8.3,6,9.1c5.6,0.9,10.9-3.3,12.3-8.6C227.9,196.1,226.5,195.7,226.3,196.3z"/>
	</g>
</g>
<path id="XMLID_15_" class="st1" d="M149.5,160.3c0,0,2.5,1.4,4.8,5s3.9,7.2,3.9,7.2s0.4-2.9,2.5-7.3c2.1-4.3,3.9-4.9,3.9-4.9
	s-4.6,1.7-7.5,1.7S149.5,160.3,149.5,160.3z"/>
<g id="XMLID_16_">
	<path id="XMLID_115_" class="st0" d="M85.3,119.6l2.4,4.5l-5.3-1.2c0,0-3.4,0.3-1-3.3C83.9,116.1,85.3,119.6,85.3,119.6z"/>
	<g id="XMLID_110_">
		<path id="XMLID_114_" d="M84.9,119.8c0.8,1.5,1.6,3,2.4,4.5c0.1-0.3,0.2-0.6,0.3-0.9c-1.8-0.4-3.7-1-5.5-1.2c-0.3,0-0.6,0-0.8-0.1
			c-0.3-0.2-0.2,0-0.2-0.3c-0.1-0.5,0.4-1.1,0.7-1.5c0.5-0.7,1.4-2,2.4-1.5c0.2,0.1,0.4,0.3,0.5,0.5c0.1,0.1,0.3,0.6,0.2,0.3
			c0.3,0.7,1.4,0.8,1-0.1c-0.5-1.2-1.8-2.7-3.3-2.1c-1.6,0.7-3.5,3.7-2.1,5.3c0.7,0.8,1.8,0.7,2.5,0.9c1.6,0.4,3.2,0.7,4.9,1.1
			c0.6,0.1,0.5-0.6,0.3-0.9c-0.8-1.5-1.6-3-2.4-4.5C85.3,118.6,84.5,119,84.9,119.8z"/>
	</g>
</g>
<g id="XMLID_9_">
	<path id="XMLID_109_" class="st0" d="M150.6,255.3c0,0-1.1,1.7,6.4,0.7s7.4-2.3,7.4-2.3s-3.3-1.2-4.1-2.8c-0.8-1.6-1.8-5.9-1.8-5.9
		s0.5,0.7-1.9,5.5S150.6,255.3,150.6,255.3z"/>
	<g id="XMLID_104_">
		<path id="XMLID_108_" d="M150,254.9c-1.4,2.4,4.6,2,5.3,1.9c1.4-0.1,9.8-0.5,9.9-3c0-0.3-0.3-0.6-0.5-0.6
			c-1.9-0.7-3.3-1.7-4.1-3.6c-0.6-1.5-0.9-3-1.3-4.6c-0.4,0.1-0.9,0.2-1.3,0.3c0.4,0.7-2,5-2.4,5.7c-1,1.7-2.8,3.7-5,3.7
			c-1,0-0.4,1.2,0.4,1.2c2.6,0,4.7-2.2,5.9-4.2c0.7-1.2,3.3-5.1,2.4-6.8c-0.3-0.6-1.6-0.5-1.3,0.3c0.5,2.1,0.9,4.7,2.2,6.4
			c0.5,0.7,1.3,1.2,2.1,1.7c0.4,0.2,1.1,0.7,1.6,0.8c0.7,0.1,0.6-0.4,0.1-0.4c0,0-0.5,0.4-0.8,0.4c-1.4,0.2-2.8,0.9-4.2,1.1
			c-2,0.3-4.3,0.8-6.3,0.6c-0.5,0-1.1-0.2-1.2,0C151.7,255,150.4,254.3,150,254.9z"/>
	</g>
</g>
</svg>
