<?xml version="1.0" encoding="utf-8"?>
<!-- Generator: Adobe Illustrator 19.0.0, SVG Export Plug-In . SVG Version: 6.00 Build 0)  -->
<svg version="1.1" id="Layer_1" xmlns="http://www.w3.org/2000/svg" xmlns:xlink="http://www.w3.org/1999/xlink" x="0px" y="0px"
	 viewBox="-99 -150 500 500" style="enable-background:new -99 -150 500 500;" xml:space="preserve">
<style type="text/css">
	.st0{display:none;}
	.st1{fill:#FFFFFF;}
</style>
<g id="Layer_2" class="st0">
</g>
<g id="Layer_3_1_">
	<g id="XMLID_35_">
		<path id="XMLID_41_" class="st1" d="M265.6,179.9v33.7c0,0-50.9,16.7-115.7,16.7S35.8,213.6,35.8,213.6v-33.7"/>
		<g id="XMLID_36_">
			<path id="XMLID_39_" d="M261.8,176.7c0,5.5,0,10.9,0,16.4c0,3.5,0,7.2,0,10.7c0,1.3,0.8,5.3,0,6.5c-0.3,0.4-6.4,1.8-7.7,2.1
				c-7.8,2.2-15.6,3.9-23.6,5.6c-52.2,10.7-105.8,11.5-158.2,1.8c-13.3-2.5-26.7-5.3-39.4-9.5c2.3,2.2,4.6,4.3,6.9,6.6
				c0-11.2,0-22.5,0-33.7c0-1.7-3-3.9-4.3-4.8c-0.4-0.3-3.5-2.9-3.5-1.4c0,11.2,0,22.5,0,33.7c0,2.2,4.9,6,6.9,6.6
				c23.8,7.9,49.5,12.1,74.2,14.7c43.6,4.4,87.8,1.6,130.5-7.9c8.7-1.8,17.4-3.9,25.9-6.8c0-0.1,0-0.3,0-0.3c0-11.2,0-22.5,0-33.7
				c0-1.7-3-3.9-4.3-4.8C264.9,178,261.8,175.4,261.8,176.7L261.8,176.7z"/>
		</g>
	</g>
	<g id="XMLID_28_">
		<path id="XMLID_34_" class="st1" d="M68.9,143.1c0,7.4-28.2,25.4-33.2,36.8s72.1,22.8,114.1,22.8s114.4-8.6,115.7-22.8
			s-34.7-36.8-34.7-36.8"/>
		<g id="XMLID_29_">
			<path id="XMLID_32_" d="M64.5,141.5c-0.3,3.4-6.2,7.9-8.8,10.3c-5.2,4.8-10.5,9.4-15.6,14.3c-6.2,6.2-13.7,15.1-4.4,22.3
				c7.4,5.9,18.3,7.8,27.3,9.8c14.6,3.3,29.5,5.3,44.5,7c30.1,3.3,59.9,3.1,89.9,0c14.8-1.6,29.8-3.5,44.2-7
				c8.5-2.1,20.2-4.4,26-11.6c7.7-9.5-4.3-22.6-10.8-28.8c-7.4-7-15.7-13.4-24.3-18.7c-5.7-3.6-8.5,5.2-3.6,8.3
				c6.2,3.9,12.1,8.3,17.7,13c4,3.4,8.1,7,11.2,11.5c1.3,1.7,2.3,3.4,2.9,5.3c0.4,1.4,0.3,1.7,0,2.2c-3.4,5.3-15.7,7.7-21.7,9.1
				c-13,3.3-26.4,5.1-39.8,6.6c-27.2,3-54.4,3.8-81.6,1.4c-13.9-1.3-27.8-2.9-41.6-5.3c-10.5-1.8-21.5-3.9-31.5-7.9
				c-1.6-0.7-2.9-1.3-4.3-2.2c-0.8-0.5-1.3-1-0.3,0.8c0.7,1-0.5,1.4,0.8-0.5c0.8-1,1.4-2.1,2.3-3c2.1-2.5,4.4-4.8,6.8-7
				c5.2-4.8,10.7-9.5,15.9-14.4c3.1-3.1,7.4-7,7.8-11.8C73.9,139.2,64.9,135,64.5,141.5L64.5,141.5z"/>
		</g>
	</g>
	<g id="XMLID_21_">
		<path id="XMLID_27_" class="st1" d="M68.9,18c0,0-2.3,113.6,0,125.1c2.3,11.5,24.3,16.7,80.9,16.7s82.8-9.9,80.9-16.7
			c-1.8-6.8,0-125.1,0-125.1"/>
		<g id="XMLID_22_">
			<path id="XMLID_25_" d="M63.9,18.8c-0.5,25.9-0.8,51.8-0.9,77.7c-0.1,14.1-0.3,28.4,0.5,42.3c0.3,3.4,0.3,6.4,2.3,9.1
				c3,3.9,8.1,5.9,12.6,7.4c20.8,6.4,44.5,5.7,66,5.9c24.5,0.1,50-0.8,73.8-7.4c5.2-1.4,11.5-3.3,15.5-6.9c2.3-2,2.3-3.5,2-6.4
				c-1.3-11.5-0.7-23.3-0.7-34.7c0-17.4,0.3-34.7,0.3-52.2c0.1-11.5,0.9-23,0.4-34.6c0-0.7,0-1.3,0-1.8c0-1.3-10.3-0.8-10.3,1.6
				c-0.4,23.6-0.7,47.1-0.8,70.5c-0.1,14.4-0.3,28.9,0.1,43.2c0.1,3.5,0.3,7,0.5,10.5c0.3,2.9-1.2,4.3-3.8,5.7
				c-5.6,3.3-12.5,4.6-18.9,5.7c-12.1,2.2-24.6,3-37,3.4c-24.1,0.8-50,1.4-73.5-3.9c-8.5-1.8-17.8-4.8-18.7-14.6
				c-1-12.1-0.8-24.6-0.7-36.7c0-28.5,0.4-57,1-85.5C74.1,15.9,63.9,16.6,63.9,18.8L63.9,18.8z"/>
		</g>
	</g>
	<g id="XMLID_16_">
		<path id="XMLID_20_" class="st1" d="M30.5-14.1C31.1-2.7,60.1,5.3,68.9,18s54,16.7,82.8,16.7s73.8-6.8,79.1-16.7
			c5.3-9.9,38.4-16.9,38.4-32.1"/>
		<g id="XMLID_17_">
			<path id="XMLID_18_" d="M26.3-16.6C27-8.7,35.1-3.2,41.3,0.7c7.9,5.1,17.7,9,23.8,16.5C77.1,31.7,98.5,34,116,36.1
				c22.8,2.6,45.9,2.9,68.8,0.3c10.9-1.3,21.9-3,32.5-5.9c6.4-1.8,13.5-3.9,17.7-9.2c5.5-7,14.6-10.3,22.3-14.6
				c6.9-3.9,16-9.2,16.4-18.2c0.1-3.3-8.6-8.1-8.8-4.9c-0.3,7.5-8.1,12.4-14.1,15.6c-6.5,3.9-13.8,6.8-19.8,11.3
				c-2.1,1.7-3.4,3.4-4.9,5.3c-1.8,2.2-4.4,3.4-6.9,4.4c-8.5,3.8-17.8,5.5-26.9,7c-20.3,3.4-40.7,4.3-61.3,3.4
				c-10.8-0.5-21.5-1.4-32-3.4C91.2,26,81.3,24.5,74.7,20c-2.6-1.8-4.3-4.8-6.6-7c-3.6-3.4-7.9-6.2-12.1-9c-4.3-2.7-9-5.2-13.1-7.9
				c-2.9-1.8-7.3-4.3-7.5-7.9C34.6-15,25.9-19.3,26.3-16.6L26.3-16.6z"/>
		</g>
	</g>
	<g id="XMLID_12_">
		<path id="XMLID_15_" class="st1" d="M220.9-69.2c0,0,0,19.6,0,27.5s-39.4,7.8-39.4,0s0-27.5,0-27.5h-60.1c0,0,0.8,20,0,27.5
			c0.8,7.4-40.5,10.2-41.5,0c0-9.1,0-27.5,0-27.5H30.5c0,0,0,46.7,0,55S117.7,5.5,150.7,5.5s118.6-5.9,118.6-19.6s0-55,0-55
			L220.9-69.2L220.9-69.2z"/>
		<g id="XMLID_13_">
			<path id="XMLID_14_" d="M216.6-71.6c0,8.2,0,16.5,0,24.7c0,3.4-0.4,4.7-3.9,5.9c-3.6,1.3-7.7,1.8-11.6,2c-4.3,0.3-8.7,0.1-13-0.5
				c-1.3-0.3-3.9-1.3-4.9-1.2c2.2-0.3,2.6,4.6,2.6-0.7c0-8.5,0-16.8,0-25.2c0-2.6-6.1-5.7-8.2-5.7c-20,0-40.2,0-60.1,0
				c-0.3,0.1-0.5,0.3-0.4,0.7c0.3,8.3,0.7,16.7,0.3,24.9c-0.1,3.1-0.5,4.3-3.4,5.7c-3.4,1.6-7.4,2.1-11.1,2.5
				c-4.4,0.5-9.1,0.7-13.5,0.1c-1.8-0.3-3.4-0.8-5.2-0.9c-0.5-0.1-0.9-0.3-1.3-0.4c-1.2-0.5-0.5,0.1,1.8,1.6c-0.1,0-0.3-0.9-0.3-0.9
				c1.2-4.9,0-11.5,0-16.5c0-3.6,0-7.3,0-11.1c0-2.6-6.1-5.7-8.2-5.7c-16.4,0-32.9,0-49.3,0c-0.3,0.1-0.5,0.3-0.4,0.7
				c0,10,0,20,0,29.9c0,6.4,0,12.8,0,19.1c0,3.6-0.7,6.4,2.1,9.1C35-7.4,45.5-5.3,54-3.3C68.5-0.1,83.3,2,98,4
				c27.3,3.4,54.1,5.2,81.6,3.9c15.6-0.8,31.4-2,46.8-3.9c12.8-1.6,26.2-3.3,38.1-7.9c2.9-1.2,7.4-2.9,8.8-6.1
				c0.8-2,0.3-4.6,0.3-6.6c0-3.8,0-7.5,0-11.3c0-13,0-25.9,0-38.8c0-2.6-6.1-5.7-8.2-5.7c-16.1,0-32.1,0-48.3,0
				c-1.7,0,1.8,3.4,2,3.5c1.6,1.3,3.8,2.9,5.9,2.9c16.1,0,32.1,0,48.3,0c-2.7-1.8-5.5-3.8-8.2-5.7c0,12.8,0,25.5,0,38.1
				c0,3.9,0,7.9,0,12c0,2.1,0.5,4.4-0.5,6.4c-1.8,3.4-7,4.8-10.3,5.9c-14.6,4.8-30.5,6.5-45.7,8.1c-16.9,1.8-34.1,2.9-51,3.4
				C125.7,2.7,93.4-1.4,62-6.7C54.9-8,47.6-9.3,40.6-11.1c-2.3-0.7-4.4-1.3-6.6-2.1c-4.3-1.7,1.6,1,0.9,1.6c0.5-0.5,0-5.1,0-5.7
				c0-3.5,0-7.2,0-10.7c0-7.7,0-15.4,0-23.2c0-3.5,0-7,0-10.5c0-1-0.5-4.2,0-5.1c-0.5,0.9,1.4,0.5,2.7,0.5c2.9,0,5.9,0,8.8,0
				c12.5,0,24.9,0,37.5,0c-2.7-1.8-5.5-3.8-8.2-5.7c0,6.9,0,14.1,0,21c0,2.9-0.7,6.4,0.9,9c1.4,2.5,4.3,4.4,6.8,5.9
				c10.2,5.9,26.3,5.6,37.1,1.7c5.3-1.8,5.5-4.2,5.7-9.5c0.3-7.3-0.5-14.6-0.3-21.9c0.1-1.3-0.8-0.4,0.7-0.4c1.8,0,3.8,0,5.6,0
				c6.2,0,12.5,0,18.7,0c11.6,0,23.2,0,34.7,0c-2.7-1.8-5.5-3.8-8.2-5.7c0,7.9,0,15.7,0,23.7c0,3.4-0.1,5.3,2.5,7.9
				c2.6,2.5,5.9,4.3,9.2,5.3c7.3,2.3,15.6,2.5,23.2,1.8c4.3-0.4,12.6-1,13.3-6.5c0.9-8.8,0-18.2,0-27.1
				C225.4-69.2,216.6-73.3,216.6-71.6z"/>
		</g>
	</g>
	<g id="XMLID_7_">
		<path id="XMLID_11_" class="st1" d="M17.7,214.7c2.9-4.7,18.2-1,18.2-1s46.5,16.7,114.1,16.7s115.7-16.7,115.7-16.7
			s9.6-4,18.2-3.1c9.4,1.8,10.3,31,2.1,36.3c-27.3,17.7-79.9,22.8-134.2,22.8S26,254.5,17.8,246.8C10.4,239.9,17.7,214.7,17.7,214.7
			"/>
		<g id="XMLID_8_">
			<path id="XMLID_10_" d="M21,218.4c2.7-3.4,12.4-1.2,16-0.1c3.1,0.8,6.2,2,9.4,2.9c18.7,5.3,37.9,8.7,57.1,10.9
				c50.1,5.9,101.8,2.9,150.7-9.9c4.3-1.2,8.5-2.3,12.6-3.6c0.9-0.3,1.8-0.7,2.6-0.9c2.1-0.8,4.2-1.3,6.2-1.8c2.1-0.4,7.7-2,9.5-0.8
				s2.1,5.7,2.3,7.5c0.5,4.3,0.4,8.6-0.7,12.8c-2.1,8.8-11.8,11.8-19.5,14.8c-24.9,9.6-52.4,12.1-78.9,13.5
				c-28.2,1.6-56.3,1.3-84.5-1.8c-24.9-2.9-50-6.6-73.9-14.1c-3.1-0.9-6.2-2-9.1-3.4c-1.2-0.5-1.8-0.8-2.2-1.3
				c1,1.3,0.3,0.3,0.3-0.1c-0.4-1.3-0.5-2.5-0.7-3.8c-0.5-7.3,1.2-15,3.1-21.9c1-3.8-6-11.1-7.4-5.9c-3.5,12.5-7.9,33.2,6,40.9
				c6.5,3.5,14.2,5.3,21.2,7.3c11.5,3,23,5.3,34.6,7.3c28,4.8,56.2,7.4,84.7,7.3c31.1-0.3,63-1.7,93.4-9.4
				c11.3-2.9,22.6-6.5,32.7-12.5c7.5-4.6,8.8-13.9,8.6-22.1c-0.3-7.9-2-18.6-9.4-23.2c-4.7-2.9-11.5-1.4-16.4-0.3
				c-2,0.5-3.9,1.2-5.7,1.8c-1.6,0.7,0.4-0.1-0.5,0.3c-13.3,4.4-27.3,7.4-41.1,9.9c-30.2,5.3-61.2,7.5-91.7,6.2
				c-25.9-1.2-51.7-4.6-76.8-10.8c-9.5-2.3-18.9-6.4-28.9-6.8c-3.8-0.1-7.9,0-10.5,3.3C11.8,214,18.2,222.1,21,218.4L21,218.4z"/>
		</g>
	</g>
</g>
</svg>
